<mxfile host="app.diagrams.net" agent="Mozilla/5.0 (Windows NT 10.0; Win64; x64) AppleWebKit/537.36 (KHTML, like Gecko) Chrome/138.0.0.0 Safari/537.36" version="28.0.9">
  <diagram name="Page-1" id="4uuG-poOv1CqC0VYNBKf">
    <mxGraphModel dx="2276" dy="863" grid="1" gridSize="10" guides="1" tooltips="1" connect="1" arrows="1" fold="1" page="1" pageScale="1" pageWidth="850" pageHeight="1100" math="0" shadow="0">
      <root>
        <mxCell id="0" />
        <mxCell id="1" parent="0" />
        <mxCell id="OSsUpKdPYM-bpuGo5dS0-1" value="The ER diagram" style="text;html=1;align=center;verticalAlign=middle;resizable=0;points=[];autosize=1;strokeColor=none;fillColor=none;" vertex="1" parent="1">
          <mxGeometry x="20" y="110" width="110" height="30" as="geometry" />
        </mxCell>
        <mxCell id="OSsUpKdPYM-bpuGo5dS0-2" value="User" style="rounded=0;whiteSpace=wrap;html=1;" vertex="1" parent="1">
          <mxGeometry x="383.5" y="760" width="165" height="60" as="geometry" />
        </mxCell>
        <mxCell id="OSsUpKdPYM-bpuGo5dS0-3" value="News" style="rounded=0;whiteSpace=wrap;html=1;" vertex="1" parent="1">
          <mxGeometry x="630" y="530" width="120" height="60" as="geometry" />
        </mxCell>
        <mxCell id="OSsUpKdPYM-bpuGo5dS0-4" value="Events" style="rounded=0;whiteSpace=wrap;html=1;" vertex="1" parent="1">
          <mxGeometry x="70" y="530" width="120" height="60" as="geometry" />
        </mxCell>
        <mxCell id="OSsUpKdPYM-bpuGo5dS0-5" value="Comment" style="rounded=0;whiteSpace=wrap;html=1;" vertex="1" parent="1">
          <mxGeometry x="318" y="210" width="170" height="60" as="geometry" />
        </mxCell>
        <mxCell id="OSsUpKdPYM-bpuGo5dS0-8" value="writes_Comment" style="rhombus;whiteSpace=wrap;html=1;" vertex="1" parent="1">
          <mxGeometry x="400" y="520" width="132" height="80" as="geometry" />
        </mxCell>
        <mxCell id="OSsUpKdPYM-bpuGo5dS0-12" value="" style="endArrow=none;html=1;rounded=0;entryX=0;entryY=0.5;entryDx=0;entryDy=0;exitX=1;exitY=0.5;exitDx=0;exitDy=0;" edge="1" parent="1" source="OSsUpKdPYM-bpuGo5dS0-8" target="OSsUpKdPYM-bpuGo5dS0-3">
          <mxGeometry width="50" height="50" relative="1" as="geometry">
            <mxPoint x="310" y="640" as="sourcePoint" />
            <mxPoint x="360" y="590" as="targetPoint" />
          </mxGeometry>
        </mxCell>
        <mxCell id="OSsUpKdPYM-bpuGo5dS0-16" value="n" style="edgeLabel;html=1;align=center;verticalAlign=middle;resizable=0;points=[];" vertex="1" connectable="0" parent="OSsUpKdPYM-bpuGo5dS0-12">
          <mxGeometry x="0.4082" y="-3" relative="1" as="geometry">
            <mxPoint as="offset" />
          </mxGeometry>
        </mxCell>
        <mxCell id="OSsUpKdPYM-bpuGo5dS0-13" value="" style="endArrow=none;html=1;rounded=0;entryX=0.5;entryY=1;entryDx=0;entryDy=0;exitX=0.5;exitY=0;exitDx=0;exitDy=0;" edge="1" parent="1" source="OSsUpKdPYM-bpuGo5dS0-2" target="OSsUpKdPYM-bpuGo5dS0-8">
          <mxGeometry width="50" height="50" relative="1" as="geometry">
            <mxPoint x="390" y="670" as="sourcePoint" />
            <mxPoint x="440" y="620" as="targetPoint" />
          </mxGeometry>
        </mxCell>
        <mxCell id="OSsUpKdPYM-bpuGo5dS0-14" value="1" style="edgeLabel;html=1;align=center;verticalAlign=middle;resizable=0;points=[];" vertex="1" connectable="0" parent="OSsUpKdPYM-bpuGo5dS0-13">
          <mxGeometry x="-0.4931" y="-2" relative="1" as="geometry">
            <mxPoint as="offset" />
          </mxGeometry>
        </mxCell>
        <mxCell id="OSsUpKdPYM-bpuGo5dS0-17" value="Generates" style="rhombus;whiteSpace=wrap;html=1;" vertex="1" parent="1">
          <mxGeometry x="644" y="650" width="91" height="80" as="geometry" />
        </mxCell>
        <mxCell id="OSsUpKdPYM-bpuGo5dS0-19" value="" style="endArrow=none;html=1;rounded=0;entryX=0.5;entryY=1;entryDx=0;entryDy=0;exitX=0.5;exitY=0;exitDx=0;exitDy=0;" edge="1" parent="1" source="OSsUpKdPYM-bpuGo5dS0-17" target="OSsUpKdPYM-bpuGo5dS0-3">
          <mxGeometry width="50" height="50" relative="1" as="geometry">
            <mxPoint x="590" y="670" as="sourcePoint" />
            <mxPoint x="640" y="620" as="targetPoint" />
          </mxGeometry>
        </mxCell>
        <mxCell id="OSsUpKdPYM-bpuGo5dS0-44" value="Text" style="edgeLabel;html=1;align=center;verticalAlign=middle;resizable=0;points=[];" vertex="1" connectable="0" parent="OSsUpKdPYM-bpuGo5dS0-19">
          <mxGeometry x="0.4225" y="-4" relative="1" as="geometry">
            <mxPoint as="offset" />
          </mxGeometry>
        </mxCell>
        <mxCell id="OSsUpKdPYM-bpuGo5dS0-20" value="" style="endArrow=none;html=1;rounded=0;exitX=1;exitY=0.5;exitDx=0;exitDy=0;entryX=0.5;entryY=1;entryDx=0;entryDy=0;" edge="1" parent="1" source="OSsUpKdPYM-bpuGo5dS0-2" target="OSsUpKdPYM-bpuGo5dS0-17">
          <mxGeometry width="50" height="50" relative="1" as="geometry">
            <mxPoint x="620" y="820" as="sourcePoint" />
            <mxPoint x="670" y="770" as="targetPoint" />
          </mxGeometry>
        </mxCell>
        <mxCell id="OSsUpKdPYM-bpuGo5dS0-43" value="1" style="edgeLabel;html=1;align=center;verticalAlign=middle;resizable=0;points=[];" vertex="1" connectable="0" parent="OSsUpKdPYM-bpuGo5dS0-20">
          <mxGeometry x="-0.7241" y="-5" relative="1" as="geometry">
            <mxPoint as="offset" />
          </mxGeometry>
        </mxCell>
        <mxCell id="OSsUpKdPYM-bpuGo5dS0-21" value="Generates" style="rhombus;whiteSpace=wrap;html=1;" vertex="1" parent="1">
          <mxGeometry x="90" y="650" width="80" height="80" as="geometry" />
        </mxCell>
        <mxCell id="OSsUpKdPYM-bpuGo5dS0-22" value="" style="endArrow=none;html=1;rounded=0;entryX=0.5;entryY=1;entryDx=0;entryDy=0;exitX=0.5;exitY=0;exitDx=0;exitDy=0;" edge="1" parent="1" source="OSsUpKdPYM-bpuGo5dS0-21" target="OSsUpKdPYM-bpuGo5dS0-4">
          <mxGeometry width="50" height="50" relative="1" as="geometry">
            <mxPoint x="50" y="690" as="sourcePoint" />
            <mxPoint x="100" y="640" as="targetPoint" />
          </mxGeometry>
        </mxCell>
        <mxCell id="OSsUpKdPYM-bpuGo5dS0-42" value="n" style="edgeLabel;html=1;align=center;verticalAlign=middle;resizable=0;points=[];" vertex="1" connectable="0" parent="OSsUpKdPYM-bpuGo5dS0-22">
          <mxGeometry x="0.1471" y="-2" relative="1" as="geometry">
            <mxPoint as="offset" />
          </mxGeometry>
        </mxCell>
        <mxCell id="OSsUpKdPYM-bpuGo5dS0-23" value="" style="endArrow=none;html=1;rounded=0;entryX=0;entryY=0.5;entryDx=0;entryDy=0;exitX=0.5;exitY=1;exitDx=0;exitDy=0;" edge="1" parent="1" source="OSsUpKdPYM-bpuGo5dS0-21" target="OSsUpKdPYM-bpuGo5dS0-2">
          <mxGeometry width="50" height="50" relative="1" as="geometry">
            <mxPoint x="290" y="850" as="sourcePoint" />
            <mxPoint x="340" y="800" as="targetPoint" />
          </mxGeometry>
        </mxCell>
        <mxCell id="OSsUpKdPYM-bpuGo5dS0-41" value="1" style="edgeLabel;html=1;align=center;verticalAlign=middle;resizable=0;points=[];" vertex="1" connectable="0" parent="OSsUpKdPYM-bpuGo5dS0-23">
          <mxGeometry x="0.7682" y="-3" relative="1" as="geometry">
            <mxPoint as="offset" />
          </mxGeometry>
        </mxCell>
        <mxCell id="OSsUpKdPYM-bpuGo5dS0-24" value="writes_Comment" style="rhombus;whiteSpace=wrap;html=1;" vertex="1" parent="1">
          <mxGeometry x="242" y="520" width="132" height="80" as="geometry" />
        </mxCell>
        <mxCell id="OSsUpKdPYM-bpuGo5dS0-25" value="" style="endArrow=none;html=1;rounded=0;entryX=1;entryY=0.5;entryDx=0;entryDy=0;exitX=0;exitY=0.5;exitDx=0;exitDy=0;" edge="1" parent="1" source="OSsUpKdPYM-bpuGo5dS0-24" target="OSsUpKdPYM-bpuGo5dS0-4">
          <mxGeometry width="50" height="50" relative="1" as="geometry">
            <mxPoint x="220" y="570" as="sourcePoint" />
            <mxPoint x="190" y="460" as="targetPoint" />
          </mxGeometry>
        </mxCell>
        <mxCell id="OSsUpKdPYM-bpuGo5dS0-40" value="n" style="edgeLabel;html=1;align=center;verticalAlign=middle;resizable=0;points=[];" vertex="1" connectable="0" parent="OSsUpKdPYM-bpuGo5dS0-25">
          <mxGeometry x="0.5083" y="-4" relative="1" as="geometry">
            <mxPoint as="offset" />
          </mxGeometry>
        </mxCell>
        <mxCell id="OSsUpKdPYM-bpuGo5dS0-26" value="" style="endArrow=none;html=1;rounded=0;exitX=0.406;exitY=-0.018;exitDx=0;exitDy=0;exitPerimeter=0;entryX=0.5;entryY=1;entryDx=0;entryDy=0;" edge="1" parent="1" source="OSsUpKdPYM-bpuGo5dS0-2" target="OSsUpKdPYM-bpuGo5dS0-24">
          <mxGeometry width="50" height="50" relative="1" as="geometry">
            <mxPoint x="370" y="700" as="sourcePoint" />
            <mxPoint x="420" y="650" as="targetPoint" />
          </mxGeometry>
        </mxCell>
        <mxCell id="OSsUpKdPYM-bpuGo5dS0-38" value="1" style="edgeLabel;html=1;align=center;verticalAlign=middle;resizable=0;points=[];" vertex="1" connectable="0" parent="OSsUpKdPYM-bpuGo5dS0-26">
          <mxGeometry x="-0.7042" y="-1" relative="1" as="geometry">
            <mxPoint as="offset" />
          </mxGeometry>
        </mxCell>
        <mxCell id="OSsUpKdPYM-bpuGo5dS0-28" value="d" style="ellipse;whiteSpace=wrap;html=1;aspect=fixed;" vertex="1" parent="1">
          <mxGeometry x="388" y="330" width="30" height="30" as="geometry" />
        </mxCell>
        <mxCell id="OSsUpKdPYM-bpuGo5dS0-29" value="Event_Comment" style="rounded=0;whiteSpace=wrap;html=1;" vertex="1" parent="1">
          <mxGeometry x="242" y="400" width="120" height="60" as="geometry" />
        </mxCell>
        <mxCell id="OSsUpKdPYM-bpuGo5dS0-30" value="News_Comment" style="rounded=0;whiteSpace=wrap;html=1;" vertex="1" parent="1">
          <mxGeometry x="424" y="400" width="120" height="60" as="geometry" />
        </mxCell>
        <mxCell id="OSsUpKdPYM-bpuGo5dS0-32" value="" style="shape=link;html=1;rounded=0;entryX=0.5;entryY=1;entryDx=0;entryDy=0;exitX=0.5;exitY=0;exitDx=0;exitDy=0;" edge="1" parent="1" source="OSsUpKdPYM-bpuGo5dS0-28" target="OSsUpKdPYM-bpuGo5dS0-5">
          <mxGeometry width="100" relative="1" as="geometry">
            <mxPoint x="320" y="490" as="sourcePoint" />
            <mxPoint x="420" y="490" as="targetPoint" />
          </mxGeometry>
        </mxCell>
        <mxCell id="OSsUpKdPYM-bpuGo5dS0-33" value="" style="endArrow=none;html=1;rounded=0;exitX=0.5;exitY=0;exitDx=0;exitDy=0;entryX=0;entryY=0.5;entryDx=0;entryDy=0;" edge="1" parent="1" source="OSsUpKdPYM-bpuGo5dS0-29" target="OSsUpKdPYM-bpuGo5dS0-28">
          <mxGeometry width="50" height="50" relative="1" as="geometry">
            <mxPoint x="320" y="370" as="sourcePoint" />
            <mxPoint x="370" y="320" as="targetPoint" />
          </mxGeometry>
        </mxCell>
        <mxCell id="OSsUpKdPYM-bpuGo5dS0-34" value="" style="endArrow=none;html=1;rounded=0;exitX=1;exitY=0.5;exitDx=0;exitDy=0;entryX=0.545;entryY=0.08;entryDx=0;entryDy=0;entryPerimeter=0;" edge="1" parent="1" source="OSsUpKdPYM-bpuGo5dS0-28" target="OSsUpKdPYM-bpuGo5dS0-30">
          <mxGeometry width="50" height="50" relative="1" as="geometry">
            <mxPoint x="500" y="370" as="sourcePoint" />
            <mxPoint x="550" y="320" as="targetPoint" />
          </mxGeometry>
        </mxCell>
        <mxCell id="OSsUpKdPYM-bpuGo5dS0-36" value="" style="endArrow=none;html=1;rounded=0;exitX=0.5;exitY=0;exitDx=0;exitDy=0;entryX=0.443;entryY=1.019;entryDx=0;entryDy=0;entryPerimeter=0;" edge="1" parent="1" source="OSsUpKdPYM-bpuGo5dS0-24" target="OSsUpKdPYM-bpuGo5dS0-29">
          <mxGeometry width="50" height="50" relative="1" as="geometry">
            <mxPoint x="110" y="470" as="sourcePoint" />
            <mxPoint x="160" y="420" as="targetPoint" />
          </mxGeometry>
        </mxCell>
        <mxCell id="OSsUpKdPYM-bpuGo5dS0-39" value="n" style="edgeLabel;html=1;align=center;verticalAlign=middle;resizable=0;points=[];" vertex="1" connectable="0" parent="OSsUpKdPYM-bpuGo5dS0-36">
          <mxGeometry x="0.3485" y="-1" relative="1" as="geometry">
            <mxPoint as="offset" />
          </mxGeometry>
        </mxCell>
        <mxCell id="OSsUpKdPYM-bpuGo5dS0-37" value="" style="endArrow=none;html=1;rounded=0;exitX=0.5;exitY=0;exitDx=0;exitDy=0;entryX=0.351;entryY=1.09;entryDx=0;entryDy=0;entryPerimeter=0;" edge="1" parent="1" source="OSsUpKdPYM-bpuGo5dS0-8" target="OSsUpKdPYM-bpuGo5dS0-30">
          <mxGeometry width="50" height="50" relative="1" as="geometry">
            <mxPoint x="710" y="420" as="sourcePoint" />
            <mxPoint x="760" y="370" as="targetPoint" />
          </mxGeometry>
        </mxCell>
        <mxCell id="OSsUpKdPYM-bpuGo5dS0-45" value="n" style="edgeLabel;html=1;align=center;verticalAlign=middle;resizable=0;points=[];" vertex="1" connectable="0" parent="OSsUpKdPYM-bpuGo5dS0-37">
          <mxGeometry x="0.3684" y="-3" relative="1" as="geometry">
            <mxPoint as="offset" />
          </mxGeometry>
        </mxCell>
        <mxCell id="OSsUpKdPYM-bpuGo5dS0-47" value="SignUp_Details" style="rounded=0;whiteSpace=wrap;html=1;" vertex="1" parent="1">
          <mxGeometry x="-200" y="630" width="120" height="60" as="geometry" />
        </mxCell>
        <mxCell id="OSsUpKdPYM-bpuGo5dS0-49" value="Relates_To" style="rhombus;whiteSpace=wrap;html=1;" vertex="1" parent="1">
          <mxGeometry x="-209" y="516" width="140" height="80" as="geometry" />
        </mxCell>
        <mxCell id="OSsUpKdPYM-bpuGo5dS0-50" value="Sign_up" style="rhombus;whiteSpace=wrap;html=1;" vertex="1" parent="1">
          <mxGeometry x="-210" y="760" width="140" height="80" as="geometry" />
        </mxCell>
        <mxCell id="OSsUpKdPYM-bpuGo5dS0-51" value="" style="endArrow=none;html=1;rounded=0;exitX=1;exitY=0.5;exitDx=0;exitDy=0;entryX=0;entryY=0.75;entryDx=0;entryDy=0;" edge="1" parent="1" source="OSsUpKdPYM-bpuGo5dS0-50" target="OSsUpKdPYM-bpuGo5dS0-2">
          <mxGeometry width="50" height="50" relative="1" as="geometry">
            <mxPoint x="90" y="870" as="sourcePoint" />
            <mxPoint x="140" y="820" as="targetPoint" />
          </mxGeometry>
        </mxCell>
        <mxCell id="OSsUpKdPYM-bpuGo5dS0-58" value="1" style="edgeLabel;html=1;align=center;verticalAlign=middle;resizable=0;points=[];" vertex="1" connectable="0" parent="OSsUpKdPYM-bpuGo5dS0-51">
          <mxGeometry x="0.8301" y="-3" relative="1" as="geometry">
            <mxPoint as="offset" />
          </mxGeometry>
        </mxCell>
        <mxCell id="OSsUpKdPYM-bpuGo5dS0-52" value="" style="endArrow=none;html=1;rounded=0;entryX=0.5;entryY=1;entryDx=0;entryDy=0;exitX=0.5;exitY=0;exitDx=0;exitDy=0;" edge="1" parent="1" source="OSsUpKdPYM-bpuGo5dS0-50" target="OSsUpKdPYM-bpuGo5dS0-47">
          <mxGeometry width="50" height="50" relative="1" as="geometry">
            <mxPoint x="-320" y="770" as="sourcePoint" />
            <mxPoint x="-270" y="720" as="targetPoint" />
          </mxGeometry>
        </mxCell>
        <mxCell id="OSsUpKdPYM-bpuGo5dS0-57" value="m" style="edgeLabel;html=1;align=center;verticalAlign=middle;resizable=0;points=[];" vertex="1" connectable="0" parent="OSsUpKdPYM-bpuGo5dS0-52">
          <mxGeometry x="0.5714" y="2" relative="1" as="geometry">
            <mxPoint as="offset" />
          </mxGeometry>
        </mxCell>
        <mxCell id="OSsUpKdPYM-bpuGo5dS0-53" value="" style="endArrow=none;html=1;rounded=0;entryX=0.5;entryY=1;entryDx=0;entryDy=0;exitX=0.5;exitY=0;exitDx=0;exitDy=0;" edge="1" parent="1" source="OSsUpKdPYM-bpuGo5dS0-47" target="OSsUpKdPYM-bpuGo5dS0-49">
          <mxGeometry width="50" height="50" relative="1" as="geometry">
            <mxPoint x="-470" y="680" as="sourcePoint" />
            <mxPoint x="-420" y="630" as="targetPoint" />
          </mxGeometry>
        </mxCell>
        <mxCell id="OSsUpKdPYM-bpuGo5dS0-55" value="1" style="edgeLabel;html=1;align=center;verticalAlign=middle;resizable=0;points=[];" vertex="1" connectable="0" parent="OSsUpKdPYM-bpuGo5dS0-53">
          <mxGeometry x="0.1992" y="-3" relative="1" as="geometry">
            <mxPoint as="offset" />
          </mxGeometry>
        </mxCell>
        <mxCell id="OSsUpKdPYM-bpuGo5dS0-54" value="" style="endArrow=none;html=1;rounded=0;exitX=1;exitY=0.5;exitDx=0;exitDy=0;entryX=0;entryY=0.5;entryDx=0;entryDy=0;" edge="1" parent="1" source="OSsUpKdPYM-bpuGo5dS0-49" target="OSsUpKdPYM-bpuGo5dS0-4">
          <mxGeometry width="50" height="50" relative="1" as="geometry">
            <mxPoint x="-70" y="470" as="sourcePoint" />
            <mxPoint x="-20" y="420" as="targetPoint" />
          </mxGeometry>
        </mxCell>
        <mxCell id="OSsUpKdPYM-bpuGo5dS0-56" value="1" style="edgeLabel;html=1;align=center;verticalAlign=middle;resizable=0;points=[];" vertex="1" connectable="0" parent="OSsUpKdPYM-bpuGo5dS0-54">
          <mxGeometry x="0.721" y="7" relative="1" as="geometry">
            <mxPoint as="offset" />
          </mxGeometry>
        </mxCell>
      </root>
    </mxGraphModel>
  </diagram>
</mxfile>
